<?xml version="1.0" encoding="utf-8"?>
<!-- Generator: Adobe Illustrator 16.0.0, SVG Export Plug-In . SVG Version: 6.00 Build 0)  -->
<!DOCTYPE svg PUBLIC "-//W3C//DTD SVG 1.1//EN" "http://www.w3.org/Graphics/SVG/1.1/DTD/svg11.dtd">
<svg version="1.1" id="Capa_1" xmlns="http://www.w3.org/2000/svg" xmlns:xlink="http://www.w3.org/1999/xlink" x="0px" y="0px"
	 width="966.066px" height="229.488px" viewBox="0 0 966.066 229.488" enable-background="new 0 0 966.066 229.488"
	 xml:space="preserve">
<path display="none" fill-rule="evenodd" clip-rule="evenodd" fill="#FFFFFF" d="M91.699,130.986
	c7.186-16.601,13.891-32.09,20.917-48.322c0.946,1.702,1.666,2.72,2.115,3.846c5.049,12.634,10.068,25.279,15.069,37.931
	c2.262,5.723,1.267,7.243-4.841,7.28c-8.31,0.051-16.62,0.061-24.929-0.016C97.616,131.683,95.206,131.301,91.699,130.986z"/>
<path fill-rule="evenodd" clip-rule="evenodd" fill="#FCFCFC" d="M913.848,178.422c-16.37,0-32.741,0-49.111,0
	c-0.047-0.496-0.094-0.992-0.141-1.488c2.926-0.41,5.867-0.731,8.774-1.247c7.764-1.378,9.791-3.556,10.334-11.526
	c0.282-4.146,0.183-8.323,0.185-12.486c0.015-22.66,0.013-45.319-0.006-67.979c-0.002-1.754-0.182-3.508-0.278-5.262
	c-0.542-0.165-1.085-0.329-1.627-0.494c-16.672,33.598-33.344,67.195-50.029,100.82c-16.565-33.656-33.005-67.055-49.444-100.454
	c-0.447,0.047-0.894,0.093-1.34,0.14c-0.292,1.652-0.771,3.294-0.847,4.956c-1.063,23.276-2.085,46.553-3.089,69.832
	c-0.725,16.79-0.248,17.487,15.736,23.931c-2.189,2.342-37.224,2.949-43.564,0.192c2.513-0.731,4.019-1.442,5.574-1.577
	c11.979-1.034,15.374-3.74,16.317-15.777c1.416-18.078,2.173-36.21,3.009-54.329c0.444-9.63,0.788-19.288,0.586-28.92
	c-0.199-9.44-2.323-11.867-11.374-14.491c-4.357-1.263-8.866-2.007-13.306-2.986c-0.014-0.478-0.026-0.957-0.04-1.435
	c1.578-0.368,3.153-1.035,4.735-1.054c8.83-0.103,17.663,0.075,26.49-0.101c4.421-0.088,6.775,1.795,8.727,5.762
	c14.54,29.567,29.318,59.017,44.034,88.498c0.433,0.866,0.992,1.668,1.944,3.252c1.15-1.782,2.09-3.014,2.795-4.366
	c15.065-28.917,30.212-57.792,45.041-86.83c2.394-4.689,5.292-6.678,10.44-6.334c4.811,0.321,9.66,0.019,14.491,0.095
	c1.743,0.028,3.481,0.36,5.223,0.554c0.094,0.511,0.188,1.021,0.283,1.533c-1.641,0.541-3.246,1.355-4.929,1.576
	c-7.163,0.94-10.351,3.838-11.233,11.054c-0.585,4.785-1.04,9.62-1.051,14.434c-0.053,22.824,0.047,45.648,0.156,68.472
	c0.012,2.486,0.401,4.973,0.663,7.455c0.92,8.709,2.768,10.884,10.967,13.25c1.793,0.518,3.497,1.346,5.242,2.031
	C914.073,177.555,913.961,177.988,913.848,178.422z"/>
<path fill-rule="evenodd" clip-rule="evenodd" fill="#FCFCFC" d="M646.924,183.486c-0.904-0.051-1.86,0.074-2.705-0.177
	c-23.372-6.95-44.056-17.802-57.732-39.152c-4.574-7.14-9.639-13.979-14.754-20.747c-1.104-1.46-3.295-2.564-5.153-2.899
	c-5.205-0.938-10.499-1.387-16.218-2.086c-0.262,1.747-0.665,3.172-0.659,4.595c0.057,13.315,0.033,26.634,0.342,39.944
	c0.2,8.626,1.335,9.692,9.846,11.567c2.646,0.582,5.307,1.095,7.889,2.557c-15.221,1.742-30.378,1.133-45.53,1.344
	c-0.098-0.68-0.196-1.358-0.294-2.038c1.886-0.687,3.721-1.679,5.667-1.999c5.251-0.863,7.901-3.806,8.068-9.08
	c0.09-2.828,0.296-5.656,0.295-8.484c-0.009-26.479-0.031-52.958-0.114-79.437c-0.008-2.481-0.304-4.987-0.725-7.438
	c-1.168-6.789-3.052-8.539-9.972-9.747c-1.078-0.188-2.115-0.612-3.366-2.186c1.464-0.412,2.925-1.174,4.391-1.181
	c15.966-0.079,31.933,0.076,47.897-0.066c13.976-0.124,25.301,4.696,33.184,16.635c7.595,11.502,5.508,26.875-5.36,35.41
	c-4.646,3.648-10.021,6.37-15.446,9.75c16.953,24.422,29.982,52.579,61.458,63.641C647.595,182.639,647.26,183.062,646.924,183.486z
	 M568.455,60.082c-1.664,0-3.329-0.047-4.99,0.015c-1.326,0.05-2.653,0.193-3.972,0.364c-6.72,0.871-8.117,2.008-8.439,8.685
	c-0.641,13.271-0.855,26.563-1.433,39.838c-0.177,4.064,1.845,5.659,5.412,6.219c8.67,1.361,17.218,0.939,25.609-1.727
	c7.339-2.332,12.934-6.643,15.899-13.979c7.161-17.715-5.356-38.025-24.113-39.098C571.103,60.323,569.779,60.188,568.455,60.082z"
	/>
<path fill-rule="evenodd" clip-rule="evenodd" fill="#FCFCFC" d="M643.128,177.152c1-0.283,1.983-0.717,3.002-0.825
	c8.939-0.954,10.569-2.413,10.776-11.516c0.418-18.312,0.677-36.628,0.765-54.944c0.059-12.318,0.145-24.664-0.595-36.949
	c-0.56-9.3-2.47-10.69-11.62-12.728c-0.885-0.197-1.688-0.762-2.529-1.157c-0.03-0.469-0.062-0.938-0.092-1.408
	c1.857-0.297,3.714-0.846,5.573-0.853c18.494-0.064,36.989-0.039,55.484-0.039c10.637,0,21.273,0,32.494,0
	c-0.819,7.627-1.646,15.313-2.472,23c-0.603,0.025-1.205,0.05-1.808,0.075c-0.426-2.461-1.082-4.909-1.229-7.387
	c-0.277-4.726-2.307-7.45-7.106-8.799c-15.769-4.43-31.565-4.421-47.376-0.752c-1.844,0.428-4.505,3.021-4.543,4.664
	c-0.352,15.093-0.207,30.198-0.207,45.866c10.154,0,20.435,0,30.715,0c1.166,0,2.352-0.139,3.495,0.022
	c9.716,1.366,17.477-0.431,19.604-11.754c0.12-0.641,0.939-1.151,1.718-2.051c0,12.394,0,24.237,0,37.315
	c-1.716-2.462-3.363-4.067-4.102-6.017c-3.233-8.541-10.055-11.759-18.359-12.127c-9.979-0.443-19.986-0.19-29.98-0.283
	c-2.805-0.026-3.798,1.343-3.743,4.027c0.291,14.317,0.517,28.635,0.75,42.953c0.073,4.451,2.366,7.275,6.555,8.29
	c17.045,4.13,34.004,3.649,50.685-1.781c6.848-2.229,9.745-8.151,11.821-14.532c0.787-2.422,1.725-4.795,2.593-7.189
	c0.619,0.137,1.237,0.275,1.855,0.413c-0.786,4.482-1.5,8.979-2.377,13.442c-0.927,4.721-2.008,9.412-3.042,14.209
	c-32.262,0-64.421,0-96.581,0C643.211,177.943,643.169,177.548,643.128,177.152z"/>
<path fill-rule="evenodd" clip-rule="evenodd" fill="#FCFCFC" d="M92.883,178.498c-11.908,0-23.817,0-35.725,0
	c-0.153-0.342-0.307-0.684-0.461-1.025c1.08-0.775,2.054-1.838,3.257-2.279c7.155-2.629,10.923-8.129,13.73-14.885
	c13.718-33.003,27.611-65.935,41.455-98.886c0.635-1.512,1.401-2.968,2.615-5.521c1.316,2.359,2.407,3.851,3.04,5.517
	c12.109,31.851,24.192,63.712,36.215,95.596c3.522,9.34,5.965,19.559,19.619,19.799c-4.027,2.77-39.249,3.045-44.747,0.358
	c3.712-0.599,6.317-1.065,8.936-1.429c4.221-0.586,5.962-2.948,4.608-6.982c-3.274-9.754-6.559-19.516-10.317-29.085
	c-0.59-1.502-3.648-2.78-5.622-2.866c-8.977-0.389-17.974-0.362-26.963-0.395c-12.553-0.046-12.584-0.025-17.354,11.357
	c-2.121,5.061-4.215,10.139-6.086,15.295c-2.532,6.978-0.439,10.626,6.869,12.348c2.33,0.549,4.697,0.937,7.048,1.398
	C92.96,177.374,92.921,177.936,92.883,178.498z M91.699,130.986c3.506,0.315,5.917,0.697,8.331,0.719
	c8.309,0.077,16.619,0.067,24.929,0.016c6.108-0.038,7.103-1.558,4.841-7.28c-5.001-12.652-10.02-25.297-15.069-37.931
	c-0.45-1.125-1.169-2.144-2.115-3.846C105.59,98.896,98.885,114.385,91.699,130.986z"/>
<path fill-rule="evenodd" clip-rule="evenodd" fill="#FCFCFC" d="M378.054,178.474c-11.919,0-23.837,0-35.756,0
	c-0.146-0.322-0.292-0.645-0.438-0.967c1.238-0.843,2.374-1.943,3.732-2.483c6.474-2.575,10.327-7.361,12.962-13.701
	c13.794-33.179,27.761-66.286,41.682-99.413c0.696-1.658,1.521-3.263,2.834-6.058c1.311,2.438,2.343,3.935,2.97,5.586
	c12.468,32.81,24.913,65.628,37.3,98.469c3.196,8.474,6.467,16.737,17.968,16.763c-2.788,2.8-37.303,3.452-43.128,0.457
	c1.904-0.32,3.799-0.707,5.713-0.947c6.8-0.848,8.415-2.787,6.386-9.17c-2.869-9.023-6.026-17.973-9.585-26.741
	c-0.686-1.69-3.732-3.287-5.779-3.408c-8.14-0.479-16.315-0.427-24.478-0.433c-4.98-0.003-11.103-1.471-14.62,0.866
	c-3.517,2.337-4.521,8.555-6.455,13.144c-1.872,4.442-3.679,8.925-5.24,13.483c-2.068,6.035-0.176,9.497,6.021,11.242
	c2.619,0.737,5.339,1.117,8.014,1.659C378.122,177.373,378.088,177.924,378.054,178.474z M377.225,130.486
	c1.672,0.454,2.435,0.832,3.203,0.843c10.656,0.151,21.315,0.412,31.97,0.29c4.628-0.053,4.245-3.202,2.971-6.409
	c-4.667-11.749-9.322-23.503-13.995-35.25c-0.88-2.212-1.816-4.402-3.222-7.799C390.911,98.879,384.205,114.366,377.225,130.486z"/>
<path fill-rule="evenodd" clip-rule="evenodd" fill="#FCFCFC" d="M278.951,152.131c-2.398,8.704-4.441,16.542-6.824,24.275
	c-0.328,1.063-2.343,2.289-3.577,2.289c-27.491,0-54.982-0.162-82.474-0.292c-1.922-0.009-3.845-0.001-5.767-0.001
	c-0.174-0.564-0.349-1.129-0.523-1.694c1.519-0.694,2.974-1.655,4.567-2.042c9.032-2.188,9.613-2.135,9.708-11.502
	c0.316-30.977,0.287-61.958,0.146-92.937c-0.032-7.052-1.964-8.592-9.234-9.938c-1.683-0.312-3.318-0.881-5.569-1.493
	c4.585-2.762,39.577-2.78,43.262-0.492c-0.146,0.268-0.248,0.729-0.448,0.776c-12.16,2.889-13.316,3.667-13.454,16.348
	c-0.315,28.98-0.187,57.967-0.022,86.95c0.047,8.333,2.178,10.993,10.348,10.516c13.56-0.792,27.109-2.429,40.539-4.511
	c7.241-1.123,12.54-5.895,15.476-12.877c0.382-0.908,0.928-1.756,1.475-2.582C276.716,152.721,277.152,152.715,278.951,152.131z"/>
<path fill-rule="evenodd" clip-rule="evenodd" fill="#FCFCFC" d="M337.629,178.549c-17.115,0-34.23,0-51.346,0
	c-0.084-0.365-0.167-0.73-0.251-1.096c0.879-0.38,1.726-0.936,2.643-1.104c2.284-0.421,4.619-0.57,6.901-0.997
	c6.908-1.293,9.032-3.58,9.373-10.764c0.41-8.64,0.725-17.294,0.724-25.942c-0.001-20.815-0.12-41.632-0.368-62.445
	c-0.157-13.245-2.346-15.417-15.596-16.628c-1.139-0.104-2.269-0.296-3.764-1.428c0.959-0.456,1.916-1.303,2.877-1.308
	c15.491-0.077,30.981-0.062,46.472,0.002c0.89,0.003,1.778,0.608,2.882,2.272c-2.023,0.454-4.027,1.154-6.074,1.32
	c-10.306,0.834-12.623,2.718-12.733,13.156c-0.281,26.647-0.178,53.299-0.146,79.949c0.004,2.645,0.498,5.301,0.904,7.931
	c1.075,6.945,5.013,11.393,11.78,13.39c2.095,0.618,4.113,1.495,6.167,2.253C337.926,177.59,337.777,178.069,337.629,178.549z"/>
</svg>
